<?xml version="1.0" encoding="UTF-8" standalone="no"?>
<!DOCTYPE svg PUBLIC "-//W3C//DTD SVG 1.1//EN"
 "http://www.w3.org/Graphics/SVG/1.1/DTD/svg11.dtd">
<!-- Generated by graphviz version 15.1.0 (20260618.0150)
 -->
<!-- Pages: 1 -->
<svg width="1560pt" height="210pt"
 viewBox="0.00 0.00 1560.00 210.00" xmlns="http://www.w3.org/2000/svg" xmlns:xlink="http://www.w3.org/1999/xlink">
<g id="graph0" class="graph" transform="scale(1 1) rotate(0) translate(4 206)">
<polygon fill="white" stroke="none" points="-4,4 -4,-206 1555.75,-206 1555.75,4 -4,4"/>
<!-- 3128034211840 -->
<g id="node1" class="node">
<title>3128034211840</title>
<polygon fill="none" stroke="black" points="3.75,-165.5 3.75,-201.5 194.25,-201.5 194.25,-165.5 3.75,-165.5"/>
<text xml:space="preserve" text-anchor="middle" x="18.5" y="-178.7" font-family="Times New Roman,serif" font-size="14.00">x2</text>
<polyline fill="none" stroke="black" points="33.25,-166 33.25,-201.5"/>
<text xml:space="preserve" text-anchor="middle" x="73.12" y="-178.7" font-family="Times New Roman,serif" font-size="14.00">data 0.0000</text>
<polyline fill="none" stroke="black" points="113,-166 113,-201.5"/>
<text xml:space="preserve" text-anchor="middle" x="153.62" y="-178.7" font-family="Times New Roman,serif" font-size="14.00">grad 0.0000</text>
</g>
<!-- 3128015722048* -->
<g id="node4" class="node">
<title>3128015722048*</title>
<ellipse fill="none" stroke="black" cx="261" cy="-128.5" rx="27" ry="18"/>
<text xml:space="preserve" text-anchor="middle" x="261" y="-123.45" font-family="Times New Roman,serif" font-size="14.00">*</text>
</g>
<!-- 3128034211840&#45;&gt;3128015722048* -->
<g id="edge11" class="edge">
<title>3128034211840&#45;&gt;3128015722048*</title>
<path fill="none" stroke="black" d="M172.12,-165.01C180.9,-162.35 189.7,-159.5 198,-156.5 208.09,-152.86 218.82,-148.27 228.47,-143.88"/>
<polygon fill="black" stroke="black" points="229.86,-147.09 237.45,-139.69 226.9,-140.75 229.86,-147.09"/>
</g>
<!-- 3128034408976 -->
<g id="node2" class="node">
<title>3128034408976</title>
<polygon fill="none" stroke="black" points="2.25,-110.5 2.25,-146.5 195.75,-146.5 195.75,-110.5 2.25,-110.5"/>
<text xml:space="preserve" text-anchor="middle" x="18.5" y="-123.7" font-family="Times New Roman,serif" font-size="14.00">w2</text>
<polyline fill="none" stroke="black" points="34.75,-111 34.75,-146.5"/>
<text xml:space="preserve" text-anchor="middle" x="74.62" y="-123.7" font-family="Times New Roman,serif" font-size="14.00">data 1.0000</text>
<polyline fill="none" stroke="black" points="114.5,-111 114.5,-146.5"/>
<text xml:space="preserve" text-anchor="middle" x="155.12" y="-123.7" font-family="Times New Roman,serif" font-size="14.00">grad 0.0000</text>
</g>
<!-- 3128034408976&#45;&gt;3128015722048* -->
<g id="edge8" class="edge">
<title>3128034408976&#45;&gt;3128015722048*</title>
<path fill="none" stroke="black" d="M195.84,-128.5C205.14,-128.5 214.15,-128.5 222.32,-128.5"/>
<polygon fill="black" stroke="black" points="222.13,-132 232.13,-128.5 222.13,-125 222.13,-132"/>
</g>
<!-- 3128015722048 -->
<g id="node3" class="node">
<title>3128015722048</title>
<polygon fill="none" stroke="black" points="326.25,-110.5 326.25,-146.5 533.25,-146.5 533.25,-110.5 326.25,-110.5"/>
<text xml:space="preserve" text-anchor="middle" x="349.25" y="-123.7" font-family="Times New Roman,serif" font-size="14.00">x2w2</text>
<polyline fill="none" stroke="black" points="372.25,-111 372.25,-146.5"/>
<text xml:space="preserve" text-anchor="middle" x="412.12" y="-123.7" font-family="Times New Roman,serif" font-size="14.00">data 0.0000</text>
<polyline fill="none" stroke="black" points="452,-111 452,-146.5"/>
<text xml:space="preserve" text-anchor="middle" x="492.62" y="-123.7" font-family="Times New Roman,serif" font-size="14.00">grad 0.0000</text>
</g>
<!-- 3128014115168+ -->
<g id="node10" class="node">
<title>3128014115168+</title>
<ellipse fill="none" stroke="black" cx="598.5" cy="-100.5" rx="27" ry="18"/>
<text xml:space="preserve" text-anchor="middle" x="598.5" y="-95.45" font-family="Times New Roman,serif" font-size="14.00">+</text>
</g>
<!-- 3128015722048&#45;&gt;3128014115168+ -->
<g id="edge7" class="edge">
<title>3128015722048&#45;&gt;3128014115168+</title>
<path fill="none" stroke="black" d="M533.51,-111.25C543.16,-109.62 552.45,-108.06 560.82,-106.66"/>
<polygon fill="black" stroke="black" points="561.2,-110.15 570.48,-105.04 560.04,-103.24 561.2,-110.15"/>
</g>
<!-- 3128015722048*&#45;&gt;3128015722048 -->
<g id="edge1" class="edge">
<title>3128015722048*&#45;&gt;3128015722048</title>
<path fill="none" stroke="black" d="M288.42,-128.5C296.08,-128.5 304.96,-128.5 314.47,-128.5"/>
<polygon fill="black" stroke="black" points="314.37,-132 324.37,-128.5 314.37,-125 314.37,-132"/>
</g>
<!-- 3128033711728 -->
<g id="node5" class="node">
<title>3128033711728</title>
<polygon fill="none" stroke="black" points="324,-55.5 324,-91.5 535.5,-91.5 535.5,-55.5 324,-55.5"/>
<text xml:space="preserve" text-anchor="middle" x="347" y="-68.7" font-family="Times New Roman,serif" font-size="14.00">x1w1</text>
<polyline fill="none" stroke="black" points="370,-56 370,-91.5"/>
<text xml:space="preserve" text-anchor="middle" x="412.12" y="-68.7" font-family="Times New Roman,serif" font-size="14.00">data &#45;6.0000</text>
<polyline fill="none" stroke="black" points="454.25,-56 454.25,-91.5"/>
<text xml:space="preserve" text-anchor="middle" x="494.88" y="-68.7" font-family="Times New Roman,serif" font-size="14.00">grad 0.0000</text>
</g>
<!-- 3128033711728&#45;&gt;3128014115168+ -->
<g id="edge9" class="edge">
<title>3128033711728&#45;&gt;3128014115168+</title>
<path fill="none" stroke="black" d="M535.88,-90.52C544.59,-91.93 552.96,-93.29 560.56,-94.52"/>
<polygon fill="black" stroke="black" points="559.91,-97.96 570.34,-96.1 561.03,-91.05 559.91,-97.96"/>
</g>
<!-- 3128033711728* -->
<g id="node6" class="node">
<title>3128033711728*</title>
<ellipse fill="none" stroke="black" cx="261" cy="-73.5" rx="27" ry="18"/>
<text xml:space="preserve" text-anchor="middle" x="261" y="-68.45" font-family="Times New Roman,serif" font-size="14.00">*</text>
</g>
<!-- 3128033711728*&#45;&gt;3128033711728 -->
<g id="edge2" class="edge">
<title>3128033711728*&#45;&gt;3128033711728</title>
<path fill="none" stroke="black" d="M288.42,-73.5C295.52,-73.5 303.68,-73.5 312.42,-73.5"/>
<polygon fill="black" stroke="black" points="312.24,-77 322.24,-73.5 312.24,-70 312.24,-77"/>
</g>
<!-- 3128034409216 -->
<g id="node7" class="node">
<title>3128034409216</title>
<polygon fill="none" stroke="black" points="0,-55.5 0,-91.5 198,-91.5 198,-55.5 0,-55.5"/>
<text xml:space="preserve" text-anchor="middle" x="16.25" y="-68.7" font-family="Times New Roman,serif" font-size="14.00">w1</text>
<polyline fill="none" stroke="black" points="32.5,-56 32.5,-91.5"/>
<text xml:space="preserve" text-anchor="middle" x="74.62" y="-68.7" font-family="Times New Roman,serif" font-size="14.00">data &#45;3.0000</text>
<polyline fill="none" stroke="black" points="116.75,-56 116.75,-91.5"/>
<text xml:space="preserve" text-anchor="middle" x="157.38" y="-68.7" font-family="Times New Roman,serif" font-size="14.00">grad 0.0000</text>
</g>
<!-- 3128034409216&#45;&gt;3128033711728* -->
<g id="edge10" class="edge">
<title>3128034409216&#45;&gt;3128033711728*</title>
<path fill="none" stroke="black" d="M198.14,-73.5C206.61,-73.5 214.8,-73.5 222.29,-73.5"/>
<polygon fill="black" stroke="black" points="222.29,-77 232.29,-73.5 222.29,-70 222.29,-77"/>
</g>
<!-- 3128011128272 -->
<g id="node8" class="node">
<title>3128011128272</title>
<polygon fill="none" stroke="black" points="3.75,-0.5 3.75,-36.5 194.25,-36.5 194.25,-0.5 3.75,-0.5"/>
<text xml:space="preserve" text-anchor="middle" x="18.5" y="-13.7" font-family="Times New Roman,serif" font-size="14.00">x1</text>
<polyline fill="none" stroke="black" points="33.25,-1 33.25,-36.5"/>
<text xml:space="preserve" text-anchor="middle" x="73.12" y="-13.7" font-family="Times New Roman,serif" font-size="14.00">data 2.0000</text>
<polyline fill="none" stroke="black" points="113,-1 113,-36.5"/>
<text xml:space="preserve" text-anchor="middle" x="153.62" y="-13.7" font-family="Times New Roman,serif" font-size="14.00">grad 0.0000</text>
</g>
<!-- 3128011128272&#45;&gt;3128033711728* -->
<g id="edge6" class="edge">
<title>3128011128272&#45;&gt;3128033711728*</title>
<path fill="none" stroke="black" d="M172.12,-36.99C180.9,-39.65 189.7,-42.5 198,-45.5 208.09,-49.14 218.82,-53.73 228.47,-58.12"/>
<polygon fill="black" stroke="black" points="226.9,-61.25 237.45,-62.31 229.86,-54.91 226.9,-61.25"/>
</g>
<!-- 3128014115168 -->
<g id="node9" class="node">
<title>3128014115168</title>
<polygon fill="none" stroke="black" points="661.5,-82.5 661.5,-118.5 932.25,-118.5 932.25,-82.5 661.5,-82.5"/>
<text xml:space="preserve" text-anchor="middle" x="714.12" y="-95.7" font-family="Times New Roman,serif" font-size="14.00">x1*w1 + x2*w2</text>
<polyline fill="none" stroke="black" points="766.75,-83 766.75,-118.5"/>
<text xml:space="preserve" text-anchor="middle" x="808.88" y="-95.7" font-family="Times New Roman,serif" font-size="14.00">data &#45;6.0000</text>
<polyline fill="none" stroke="black" points="851,-83 851,-118.5"/>
<text xml:space="preserve" text-anchor="middle" x="891.62" y="-95.7" font-family="Times New Roman,serif" font-size="14.00">grad 0.0000</text>
</g>
<!-- 3128034726816+ -->
<g id="node12" class="node">
<title>3128034726816+</title>
<ellipse fill="none" stroke="black" cx="995.25" cy="-72.5" rx="27" ry="18"/>
<text xml:space="preserve" text-anchor="middle" x="995.25" y="-67.45" font-family="Times New Roman,serif" font-size="14.00">+</text>
</g>
<!-- 3128014115168&#45;&gt;3128034726816+ -->
<g id="edge12" class="edge">
<title>3128014115168&#45;&gt;3128034726816+</title>
<path fill="none" stroke="black" d="M927.49,-82.02C938.24,-80.49 948.43,-79.03 957.46,-77.75"/>
<polygon fill="black" stroke="black" points="957.71,-81.25 967.11,-76.37 956.72,-74.32 957.71,-81.25"/>
</g>
<!-- 3128014115168+&#45;&gt;3128014115168 -->
<g id="edge3" class="edge">
<title>3128014115168+&#45;&gt;3128014115168</title>
<path fill="none" stroke="black" d="M625.98,-100.5C632.98,-100.5 641.04,-100.5 649.77,-100.5"/>
<polygon fill="black" stroke="black" points="649.64,-104 659.64,-100.5 649.64,-97 649.64,-104"/>
</g>
<!-- 3128034726816 -->
<g id="node11" class="node">
<title>3128034726816</title>
<polygon fill="none" stroke="black" points="1058.25,-54.5 1058.25,-90.5 1242,-90.5 1242,-54.5 1058.25,-54.5"/>
<text xml:space="preserve" text-anchor="middle" x="1069.62" y="-67.7" font-family="Times New Roman,serif" font-size="14.00">n</text>
<polyline fill="none" stroke="black" points="1081,-55 1081,-90.5"/>
<text xml:space="preserve" text-anchor="middle" x="1120.88" y="-67.7" font-family="Times New Roman,serif" font-size="14.00">data 0.8814</text>
<polyline fill="none" stroke="black" points="1160.75,-55 1160.75,-90.5"/>
<text xml:space="preserve" text-anchor="middle" x="1201.38" y="-67.7" font-family="Times New Roman,serif" font-size="14.00">grad 0.0000</text>
</g>
<!-- 3128034726864tanh -->
<g id="node15" class="node">
<title>3128034726864tanh</title>
<ellipse fill="none" stroke="black" cx="1305" cy="-72.5" rx="27" ry="18"/>
<text xml:space="preserve" text-anchor="middle" x="1305" y="-67.45" font-family="Times New Roman,serif" font-size="14.00">tanh</text>
</g>
<!-- 3128034726816&#45;&gt;3128034726864tanh -->
<g id="edge14" class="edge">
<title>3128034726816&#45;&gt;3128034726864tanh</title>
<path fill="none" stroke="black" d="M1242.26,-72.5C1250.64,-72.5 1258.77,-72.5 1266.23,-72.5"/>
<polygon fill="black" stroke="black" points="1266.2,-76 1276.2,-72.5 1266.2,-69 1266.2,-76"/>
</g>
<!-- 3128034726816+&#45;&gt;3128034726816 -->
<g id="edge4" class="edge">
<title>3128034726816+&#45;&gt;3128034726816</title>
<path fill="none" stroke="black" d="M1022.53,-72.5C1029.67,-72.5 1037.86,-72.5 1046.57,-72.5"/>
<polygon fill="black" stroke="black" points="1046.31,-76 1056.31,-72.5 1046.31,-69 1046.31,-76"/>
</g>
<!-- 3128034310576 -->
<g id="node13" class="node">
<title>3128034310576</title>
<polygon fill="none" stroke="black" points="705,-27.5 705,-63.5 888.75,-63.5 888.75,-27.5 705,-27.5"/>
<text xml:space="preserve" text-anchor="middle" x="716.38" y="-40.7" font-family="Times New Roman,serif" font-size="14.00">b</text>
<polyline fill="none" stroke="black" points="727.75,-28 727.75,-63.5"/>
<text xml:space="preserve" text-anchor="middle" x="767.62" y="-40.7" font-family="Times New Roman,serif" font-size="14.00">data 6.8814</text>
<polyline fill="none" stroke="black" points="807.5,-28 807.5,-63.5"/>
<text xml:space="preserve" text-anchor="middle" x="848.12" y="-40.7" font-family="Times New Roman,serif" font-size="14.00">grad 0.0000</text>
</g>
<!-- 3128034310576&#45;&gt;3128034726816+ -->
<g id="edge13" class="edge">
<title>3128034310576&#45;&gt;3128034726816+</title>
<path fill="none" stroke="black" d="M889.16,-58.05C913.22,-61.36 937.83,-64.74 957.18,-67.4"/>
<polygon fill="black" stroke="black" points="956.61,-70.86 967,-68.75 957.57,-63.92 956.61,-70.86"/>
</g>
<!-- 3128034726864 -->
<g id="node14" class="node">
<title>3128034726864</title>
<polygon fill="none" stroke="black" points="1368,-54.5 1368,-90.5 1551.75,-90.5 1551.75,-54.5 1368,-54.5"/>
<text xml:space="preserve" text-anchor="middle" x="1379.38" y="-67.7" font-family="Times New Roman,serif" font-size="14.00">o</text>
<polyline fill="none" stroke="black" points="1390.75,-55 1390.75,-90.5"/>
<text xml:space="preserve" text-anchor="middle" x="1430.62" y="-67.7" font-family="Times New Roman,serif" font-size="14.00">data 0.7071</text>
<polyline fill="none" stroke="black" points="1470.5,-55 1470.5,-90.5"/>
<text xml:space="preserve" text-anchor="middle" x="1511.12" y="-67.7" font-family="Times New Roman,serif" font-size="14.00">grad 0.0000</text>
</g>
<!-- 3128034726864tanh&#45;&gt;3128034726864 -->
<g id="edge5" class="edge">
<title>3128034726864tanh&#45;&gt;3128034726864</title>
<path fill="none" stroke="black" d="M1332.28,-72.5C1339.42,-72.5 1347.61,-72.5 1356.32,-72.5"/>
<polygon fill="black" stroke="black" points="1356.06,-76 1366.06,-72.5 1356.06,-69 1356.06,-76"/>
</g>
</g>
</svg>
