<?xml version="1.0" encoding="UTF-8" standalone="no"?>
<!DOCTYPE svg PUBLIC "-//W3C//DTD SVG 1.1//EN"
 "http://www.w3.org/Graphics/SVG/1.1/DTD/svg11.dtd">
<!-- Generated by graphviz version 15.1.0 (20260618.0150)
 -->
<!-- Pages: 1 -->
<svg width="1250pt" height="210pt"
 viewBox="0.00 0.00 1250.00 210.00" xmlns="http://www.w3.org/2000/svg" xmlns:xlink="http://www.w3.org/1999/xlink">
<g id="graph0" class="graph" transform="scale(1 1) rotate(0) translate(4 206)">
<polygon fill="white" stroke="none" points="-4,4 -4,-206 1246,-206 1246,4 -4,4"/>
<!-- 1627017892384 -->
<g id="node1" class="node">
<title>1627017892384</title>
<polygon fill="none" stroke="black" points="324,-55.5 324,-91.5 535.5,-91.5 535.5,-55.5 324,-55.5"/>
<text xml:space="preserve" text-anchor="middle" x="347" y="-68.7" font-family="Times New Roman,serif" font-size="14.00">x1w1</text>
<polyline fill="none" stroke="black" points="370,-56 370,-91.5"/>
<text xml:space="preserve" text-anchor="middle" x="412.12" y="-68.7" font-family="Times New Roman,serif" font-size="14.00">data &#45;6.0000</text>
<polyline fill="none" stroke="black" points="454.25,-56 454.25,-91.5"/>
<text xml:space="preserve" text-anchor="middle" x="494.88" y="-68.7" font-family="Times New Roman,serif" font-size="14.00">grad 0.0000</text>
</g>
<!-- 1627017892528+ -->
<g id="node7" class="node">
<title>1627017892528+</title>
<ellipse fill="none" stroke="black" cx="598.5" cy="-100.5" rx="27" ry="18"/>
<text xml:space="preserve" text-anchor="middle" x="598.5" y="-95.45" font-family="Times New Roman,serif" font-size="14.00">+</text>
</g>
<!-- 1627017892384&#45;&gt;1627017892528+ -->
<g id="edge12" class="edge">
<title>1627017892384&#45;&gt;1627017892528+</title>
<path fill="none" stroke="black" d="M535.88,-90.52C544.59,-91.93 552.96,-93.29 560.56,-94.52"/>
<polygon fill="black" stroke="black" points="559.91,-97.96 570.34,-96.1 561.03,-91.05 559.91,-97.96"/>
</g>
<!-- 1627017892384* -->
<g id="node2" class="node">
<title>1627017892384*</title>
<ellipse fill="none" stroke="black" cx="261" cy="-73.5" rx="27" ry="18"/>
<text xml:space="preserve" text-anchor="middle" x="261" y="-68.45" font-family="Times New Roman,serif" font-size="14.00">*</text>
</g>
<!-- 1627017892384*&#45;&gt;1627017892384 -->
<g id="edge1" class="edge">
<title>1627017892384*&#45;&gt;1627017892384</title>
<path fill="none" stroke="black" d="M288.42,-73.5C295.52,-73.5 303.68,-73.5 312.42,-73.5"/>
<polygon fill="black" stroke="black" points="312.24,-77 322.24,-73.5 312.24,-70 312.24,-77"/>
</g>
<!-- 1627017489984 -->
<g id="node3" class="node">
<title>1627017489984</title>
<polygon fill="none" stroke="black" points="3.75,-55.5 3.75,-91.5 194.25,-91.5 194.25,-55.5 3.75,-55.5"/>
<text xml:space="preserve" text-anchor="middle" x="18.5" y="-68.7" font-family="Times New Roman,serif" font-size="14.00">x1</text>
<polyline fill="none" stroke="black" points="33.25,-56 33.25,-91.5"/>
<text xml:space="preserve" text-anchor="middle" x="73.12" y="-68.7" font-family="Times New Roman,serif" font-size="14.00">data 2.0000</text>
<polyline fill="none" stroke="black" points="113,-56 113,-91.5"/>
<text xml:space="preserve" text-anchor="middle" x="153.62" y="-68.7" font-family="Times New Roman,serif" font-size="14.00">grad 0.0000</text>
</g>
<!-- 1627017489984&#45;&gt;1627017892384* -->
<g id="edge10" class="edge">
<title>1627017489984&#45;&gt;1627017892384*</title>
<path fill="none" stroke="black" d="M194.46,-73.5C204.21,-73.5 213.66,-73.5 222.21,-73.5"/>
<polygon fill="black" stroke="black" points="222.12,-77 232.12,-73.5 222.12,-70 222.12,-77"/>
</g>
<!-- 1627017892432 -->
<g id="node4" class="node">
<title>1627017892432</title>
<polygon fill="none" stroke="black" points="326.25,-110.5 326.25,-146.5 533.25,-146.5 533.25,-110.5 326.25,-110.5"/>
<text xml:space="preserve" text-anchor="middle" x="349.25" y="-123.7" font-family="Times New Roman,serif" font-size="14.00">x2w2</text>
<polyline fill="none" stroke="black" points="372.25,-111 372.25,-146.5"/>
<text xml:space="preserve" text-anchor="middle" x="412.12" y="-123.7" font-family="Times New Roman,serif" font-size="14.00">data 0.0000</text>
<polyline fill="none" stroke="black" points="452,-111 452,-146.5"/>
<text xml:space="preserve" text-anchor="middle" x="492.62" y="-123.7" font-family="Times New Roman,serif" font-size="14.00">grad 0.0000</text>
</g>
<!-- 1627017892432&#45;&gt;1627017892528+ -->
<g id="edge8" class="edge">
<title>1627017892432&#45;&gt;1627017892528+</title>
<path fill="none" stroke="black" d="M533.51,-111.25C543.16,-109.62 552.45,-108.06 560.82,-106.66"/>
<polygon fill="black" stroke="black" points="561.2,-110.15 570.48,-105.04 560.04,-103.24 561.2,-110.15"/>
</g>
<!-- 1627017892432* -->
<g id="node5" class="node">
<title>1627017892432*</title>
<ellipse fill="none" stroke="black" cx="261" cy="-128.5" rx="27" ry="18"/>
<text xml:space="preserve" text-anchor="middle" x="261" y="-123.45" font-family="Times New Roman,serif" font-size="14.00">*</text>
</g>
<!-- 1627017892432*&#45;&gt;1627017892432 -->
<g id="edge2" class="edge">
<title>1627017892432*&#45;&gt;1627017892432</title>
<path fill="none" stroke="black" d="M288.42,-128.5C296.08,-128.5 304.96,-128.5 314.47,-128.5"/>
<polygon fill="black" stroke="black" points="314.37,-132 324.37,-128.5 314.37,-125 314.37,-132"/>
</g>
<!-- 1627017892528 -->
<g id="node6" class="node">
<title>1627017892528</title>
<polygon fill="none" stroke="black" points="661.5,-82.5 661.5,-118.5 932.25,-118.5 932.25,-82.5 661.5,-82.5"/>
<text xml:space="preserve" text-anchor="middle" x="714.12" y="-95.7" font-family="Times New Roman,serif" font-size="14.00">x1*w1 + x2*w2</text>
<polyline fill="none" stroke="black" points="766.75,-83 766.75,-118.5"/>
<text xml:space="preserve" text-anchor="middle" x="808.88" y="-95.7" font-family="Times New Roman,serif" font-size="14.00">data &#45;6.0000</text>
<polyline fill="none" stroke="black" points="851,-83 851,-118.5"/>
<text xml:space="preserve" text-anchor="middle" x="891.62" y="-95.7" font-family="Times New Roman,serif" font-size="14.00">grad 0.0000</text>
</g>
<!-- 1627017892576+ -->
<g id="node10" class="node">
<title>1627017892576+</title>
<ellipse fill="none" stroke="black" cx="995.25" cy="-127.5" rx="27" ry="18"/>
<text xml:space="preserve" text-anchor="middle" x="995.25" y="-122.45" font-family="Times New Roman,serif" font-size="14.00">+</text>
</g>
<!-- 1627017892528&#45;&gt;1627017892576+ -->
<g id="edge7" class="edge">
<title>1627017892528&#45;&gt;1627017892576+</title>
<path fill="none" stroke="black" d="M932.39,-118.99C941.2,-120.21 949.56,-121.36 957.12,-122.4"/>
<polygon fill="black" stroke="black" points="956.41,-125.83 966.8,-123.73 957.37,-118.9 956.41,-125.83"/>
</g>
<!-- 1627017892528+&#45;&gt;1627017892528 -->
<g id="edge3" class="edge">
<title>1627017892528+&#45;&gt;1627017892528</title>
<path fill="none" stroke="black" d="M625.98,-100.5C632.98,-100.5 641.04,-100.5 649.77,-100.5"/>
<polygon fill="black" stroke="black" points="649.64,-104 659.64,-100.5 649.64,-97 649.64,-104"/>
</g>
<!-- 1627017561296 -->
<g id="node8" class="node">
<title>1627017561296</title>
<polygon fill="none" stroke="black" points="0,-0.5 0,-36.5 198,-36.5 198,-0.5 0,-0.5"/>
<text xml:space="preserve" text-anchor="middle" x="16.25" y="-13.7" font-family="Times New Roman,serif" font-size="14.00">w1</text>
<polyline fill="none" stroke="black" points="32.5,-1 32.5,-36.5"/>
<text xml:space="preserve" text-anchor="middle" x="74.62" y="-13.7" font-family="Times New Roman,serif" font-size="14.00">data &#45;3.0000</text>
<polyline fill="none" stroke="black" points="116.75,-1 116.75,-36.5"/>
<text xml:space="preserve" text-anchor="middle" x="157.38" y="-13.7" font-family="Times New Roman,serif" font-size="14.00">grad 0.0000</text>
</g>
<!-- 1627017561296&#45;&gt;1627017892384* -->
<g id="edge9" class="edge">
<title>1627017561296&#45;&gt;1627017892384*</title>
<path fill="none" stroke="black" d="M168.91,-36.94C178.74,-39.93 188.67,-43.15 198,-46.5 207.96,-50.07 218.58,-54.47 228.18,-58.68"/>
<polygon fill="black" stroke="black" points="226.54,-61.78 237.1,-62.67 229.4,-55.39 226.54,-61.78"/>
</g>
<!-- 1627017892576 -->
<g id="node9" class="node">
<title>1627017892576</title>
<polygon fill="none" stroke="black" points="1058.25,-109.5 1058.25,-145.5 1242,-145.5 1242,-109.5 1058.25,-109.5"/>
<text xml:space="preserve" text-anchor="middle" x="1069.62" y="-122.7" font-family="Times New Roman,serif" font-size="14.00">n</text>
<polyline fill="none" stroke="black" points="1081,-110 1081,-145.5"/>
<text xml:space="preserve" text-anchor="middle" x="1120.88" y="-122.7" font-family="Times New Roman,serif" font-size="14.00">data 0.7000</text>
<polyline fill="none" stroke="black" points="1160.75,-110 1160.75,-145.5"/>
<text xml:space="preserve" text-anchor="middle" x="1201.38" y="-122.7" font-family="Times New Roman,serif" font-size="14.00">grad 0.0000</text>
</g>
<!-- 1627017892576+&#45;&gt;1627017892576 -->
<g id="edge4" class="edge">
<title>1627017892576+&#45;&gt;1627017892576</title>
<path fill="none" stroke="black" d="M1022.53,-127.5C1029.67,-127.5 1037.86,-127.5 1046.57,-127.5"/>
<polygon fill="black" stroke="black" points="1046.31,-131 1056.31,-127.5 1046.31,-124 1046.31,-131"/>
</g>
<!-- 1627017892720 -->
<g id="node11" class="node">
<title>1627017892720</title>
<polygon fill="none" stroke="black" points="705,-137.5 705,-173.5 888.75,-173.5 888.75,-137.5 705,-137.5"/>
<text xml:space="preserve" text-anchor="middle" x="716.38" y="-150.7" font-family="Times New Roman,serif" font-size="14.00">b</text>
<polyline fill="none" stroke="black" points="727.75,-138 727.75,-173.5"/>
<text xml:space="preserve" text-anchor="middle" x="767.62" y="-150.7" font-family="Times New Roman,serif" font-size="14.00">data 6.7000</text>
<polyline fill="none" stroke="black" points="807.5,-138 807.5,-173.5"/>
<text xml:space="preserve" text-anchor="middle" x="848.12" y="-150.7" font-family="Times New Roman,serif" font-size="14.00">grad 0.0000</text>
</g>
<!-- 1627017892720&#45;&gt;1627017892576+ -->
<g id="edge5" class="edge">
<title>1627017892720&#45;&gt;1627017892576+</title>
<path fill="none" stroke="black" d="M889.16,-142.48C913.22,-139.05 937.83,-135.55 957.18,-132.79"/>
<polygon fill="black" stroke="black" points="957.59,-136.26 967,-131.39 956.6,-129.33 957.59,-136.26"/>
</g>
<!-- 1626998217120 -->
<g id="node12" class="node">
<title>1626998217120</title>
<polygon fill="none" stroke="black" points="2.25,-165.5 2.25,-201.5 195.75,-201.5 195.75,-165.5 2.25,-165.5"/>
<text xml:space="preserve" text-anchor="middle" x="18.5" y="-178.7" font-family="Times New Roman,serif" font-size="14.00">w2</text>
<polyline fill="none" stroke="black" points="34.75,-166 34.75,-201.5"/>
<text xml:space="preserve" text-anchor="middle" x="74.62" y="-178.7" font-family="Times New Roman,serif" font-size="14.00">data 1.0000</text>
<polyline fill="none" stroke="black" points="114.5,-166 114.5,-201.5"/>
<text xml:space="preserve" text-anchor="middle" x="155.12" y="-178.7" font-family="Times New Roman,serif" font-size="14.00">grad 0.0000</text>
</g>
<!-- 1626998217120&#45;&gt;1627017892432* -->
<g id="edge6" class="edge">
<title>1626998217120&#45;&gt;1627017892432*</title>
<path fill="none" stroke="black" d="M172.12,-165.01C180.9,-162.35 189.7,-159.5 198,-156.5 208.09,-152.86 218.82,-148.27 228.47,-143.88"/>
<polygon fill="black" stroke="black" points="229.86,-147.09 237.45,-139.69 226.9,-140.75 229.86,-147.09"/>
</g>
<!-- 1627017677280 -->
<g id="node13" class="node">
<title>1627017677280</title>
<polygon fill="none" stroke="black" points="3.75,-110.5 3.75,-146.5 194.25,-146.5 194.25,-110.5 3.75,-110.5"/>
<text xml:space="preserve" text-anchor="middle" x="18.5" y="-123.7" font-family="Times New Roman,serif" font-size="14.00">x2</text>
<polyline fill="none" stroke="black" points="33.25,-111 33.25,-146.5"/>
<text xml:space="preserve" text-anchor="middle" x="73.12" y="-123.7" font-family="Times New Roman,serif" font-size="14.00">data 0.0000</text>
<polyline fill="none" stroke="black" points="113,-111 113,-146.5"/>
<text xml:space="preserve" text-anchor="middle" x="153.62" y="-123.7" font-family="Times New Roman,serif" font-size="14.00">grad 0.0000</text>
</g>
<!-- 1627017677280&#45;&gt;1627017892432* -->
<g id="edge11" class="edge">
<title>1627017677280&#45;&gt;1627017892432*</title>
<path fill="none" stroke="black" d="M194.46,-128.5C204.21,-128.5 213.66,-128.5 222.21,-128.5"/>
<polygon fill="black" stroke="black" points="222.12,-132 232.12,-128.5 222.12,-125 222.12,-132"/>
</g>
</g>
</svg>
